#!OML:ASF F:\VICON\USERDATA\INSTALL\rory3\rory3.ASF
:FULLY-SPECIFIED
:DEGREES
359
root -0.865907 17.8155 5.93527 -0.79698 63.1825 364.545
lowerback 19.0363 5.023 -8.23436
upperback 2.55401 5.69238 6.49616
thorax -9.3701 3.27548 10.4259
lowerneck -10.9557 -1.74852 -2.98448
upperneck 20.8911 0.00833978 -6.88959
head 8.32119 -0.781132 -1.78477
rclavicle 1.21259e-014 -1.90833e-014
rhumerus -58.1703 -10.6174 -67.3617
rradius 111.679
rwrist 33.5778
rhand -18.1381 2.16344
rfingers 7.12502
rthumb 8.1371 -27.6599
lclavicle 1.21259e-014 -1.90833e-014
lhumerus -52.8381 8.03681 78.7161
lradius 54.3467
lwrist 11.7057
lhand -14.1124 49.7245
lfingers 7.12502
lthumb 12.0207 79.3593
rfemur -11.8116 13.15 23.6854
rtibia 40.2923
rfoot -19.3051 -2.87451
rtoes 19.5966
lfemur -8.01153 5.73249 -22.8243
ltibia 33.9446
lfoot -17.4564 0.0841974
ltoes -3.64568
360
root -0.8419 17.824 5.87675 -2.02933 62.6016 363.074
lowerback 19.0295 4.53336 -6.96134
upperback 2.50651 5.29962 6.43464
thorax -9.19949 3.02625 9.71178
lowerneck -10.7911 -1.76389 -2.69869
upperneck 20.7405 -0.100862 -6.89654
head 8.2335 -0.808645 -1.84172
rclavicle -5.14852e-014 -3.02153e-014
rhumerus -58.117 -9.81353 -67.6182
rradius 113.559
rwrist 34.2982
rhand -17.5316 2.45475
rfingers 7.12502
rthumb 8.72239 -27.345
lclavicle -5.14852e-014 -3.02153e-014
lhumerus -53.2786 8.48931 78.4064
lradius 54.1021
lwrist 12.1163
lhand -14.489 49.9439
lfingers 7.12502
lthumb 11.6576 79.5996
rfemur -11.9364 12.6182 24.0175
rtibia 40.266
rfoot -19.4726 -1.97217
rtoes 19.016
lfemur -7.98729 4.96951 -22.508
ltibia 33.9273
lfoot -17.6243 1.33756
ltoes -3.38492
361
root -0.837936 17.8276 5.83879 -2.18518 61.8118 362.786
lowerback 19.1685 4.22911 -6.56131
upperback 2.37251 4.93576 6.14438
thorax -9.27951 2.82879 9.24267
lowerneck -10.5003 -1.6994 -2.11236
upperneck 20.5406 -0.1991 -6.77159
head 8.10212 -0.793924 -1.90111
rclavicle -9.54166e-015 2.06736e-014
rhumerus -58.0689 -9.39899 -67.8403
rradius 115.109
rwrist 35.5247
rhand -17.0501 3.63906
rfingers 7.12502
rthumb 9.18696 -26.1408
lclavicle -9.54166e-015 2.06736e-014
lhumerus -53.8249 8.86507 77.8964
lradius 53.8587
lwrist 12.2556
lhand -14.7862 50.0646
lfingers 7.12502
lthumb 11.3709 79.7363
rfemur -12.1946 12.2918 23.9276
rtibia 40.2694
rfoot -19.5545 -1.55679
rtoes 16.7848
lfemur -8.06905 4.67878 -22.6577
ltibia 33.9503
lfoot -17.7294 2.59844
ltoes -4.05408
362
root -0.845657 17.8196 5.86928 -1.76837 61.1032 363.158
lowerback 18.7989 4.21691 -7.6235
upperback 2.44018 4.71285 6.13639
thorax -9.0357 2.75017 9.9464
lowerneck -10.5342 -1.80329 -2.14679
upperneck 20.4276 -0.433667 -6.42069
head 8.06396 -0.878219 -1.80072
rclavicle 9.34288e-015 4.92986e-014
rhumerus -57.9873 -9.00607 -67.923
rradius 116.699
rwrist 36.5955
rhand -17.058 3.8309
rfingers 7.12502
rthumb 9.17939 -25.9493
lclavicle 9.34288e-015 4.92986e-014
lhumerus -54.0511 9.21569 77.8808
lradius 53.5165
lwrist 11.8931
lhand -14.4861 50.8667
lfingers 7.12502
lthumb 11.6604 80.5222
rfemur -12.2781 12.5154 23.8576
rtibia 40.1882
rfoot -19.9561 -1.68036
rtoes 15.2837
lfemur -8.12293 5.88685 -22.6062
ltibia 34.0245
lfoot -17.8632 2.04364
ltoes -3.06432
363
root -0.84104 17.8126 5.81615 -2.31552 60.1671 362.354
lowerback 18.4792 3.9793 -7.40365
upperback 2.67723 4.49341 6.42756
thorax -8.55227 2.61724 10.225
lowerneck -10.8365 -1.93964 -2.80427
upperneck 20.2566 -0.557959 -6.16745
head 8.06806 -0.969064 -1.62101
rclavicle -1.09332e-014 2.22639e-014
rhumerus -57.1983 -7.56225 -68.1806
rradius 118.463
rwrist 37.4099
rhand -17.3083 1.78511
rfingers 7.12502
rthumb 8.93785 -28.0056
lclavicle -1.09332e-014 2.22639e-014
lhumerus -53.9954 10.5879 77.889
lradius 52.7476
lwrist 10.2324
lhand -11.6936 50.0782
lfingers 7.12502
lthumb 14.3522 79.562
rfemur -12.6451 12.0714 24.0044
rtibia 40.1799
rfoot -20.3779 -0.73695
rtoes 14.9073
lfemur -8.27233 5.83043 -22.4303
ltibia 34.056
lfoot -17.9635 2.85333
ltoes -1.61616
364
root -0.833405 17.8118 5.79055 -1.89441 59.4982 362.743
lowerback 18.3942 3.81017 -7.64456
upperback 2.70845 4.21578 6.36389
thorax -8.41542 2.48023 10.3783
lowerneck -10.8764 -2.193 -3.0948
upperneck 20.2057 -0.926706 -5.86895
head 8.05561 -1.14065 -1.51069
rclavicle 4.55217e-014 3.49861e-014
rhumerus -56.6078 -6.59745 -68.0767
rradius 119.772
rwrist 37.7755
rhand -17.5383 1.94611
rfingers 7.12502
rthumb 8.71591 -27.8539
lclavicle 4.55217e-014 3.49861e-014
lhumerus -54.179 11.3084 77.6624
lradius 51.9795
lwrist 8.999
lhand -9.37164 48.481
lfingers 7.12502
lthumb 16.5887 77.792
rfemur -12.8765 11.5782 23.5838
rtibia 40.2391
rfoot -21.0769 -0.144952
rtoes 12.7763
lfemur -8.30429 5.57291 -22.881
ltibia 34.0263
lfoot -18.0189 3.84097
ltoes -2.49403
365
root -0.825982 17.8209 5.76004 -1.72163 58.5964 362.763
lowerback 18.2568 3.74716 -7.72104
upperback 2.66634 4.11623 6.3193
thorax -8.36454 2.43079 10.4036
lowerneck -10.6878 -2.45061 -3.24716
upperneck 20.067 -1.3447 -5.57088
head 7.97118 -1.31941 -1.42347
rclavicle -7.95139e-016 -5.24792e-014
rhumerus -56.1531 -5.84438 -68.0415
rradius 121.103
rwrist 37.7301
rhand -17.529 1.89167
rfingers 7.12502
rthumb 8.72492 -27.908
lclavicle -7.95139e-016 -5.24792e-014
lhumerus -54.2937 11.2282 78.4256
lradius 51.7131
lwrist 11.1435
lhand -12.8372 49.249
lfingers 7.12502
lthumb 13.2501 78.8079
rfemur -13.2286 11.1148 23.2811
rtibia 40.3291
rfoot -21.7894 0.48499
rtoes 6.86518
lfemur -8.42636 5.59949 -23.1009
ltibia 34.0349
lfoot -18.1208 4.5999
ltoes -2.26754
366
root -0.820853 17.8295 5.74285 -2.23923 57.6629 362.114
lowerback 18.2278 3.0881 -7.13652
upperback 2.74724 3.30549 5.84706
thorax -7.99728 1.97932 9.72934
lowerneck -10.873 -2.11941 -2.53277
upperneck 19.8641 -1.14037 -5.1664
head 7.92935 -1.13961 -1.38805
rclavicle -5.08889e-014 7.63333e-014
rhumerus -55.1444 -4.94993 -69.0353
rradius 122.476
rwrist 37.8565
rhand -16.5414 3.63172
rfingers 7.12502
rthumb 9.67781 -26.126
lclavicle -5.08889e-014 7.63333e-014
lhumerus -54.4905 12.1894 77.254
lradius 51.3236
lwrist 11.6095
lhand -13.0041 49.5063
lfingers 7.12502
lthumb 13.0892 79.0756
rfemur -13.3993 10.86 23.5256
rtibia 40.4336
rfoot -22.4989 0.02573
rtoes -3.25007
lfemur -8.39671 5.35159 -22.8796
ltibia 34.0281
lfoot -18.2542 5.51375
ltoes -1.04456
367
root -0.81775 17.8231 5.70615 -2.29726 56.7236 361.892
lowerback 18.0018 3.03677 -7.39732
upperback 2.84795 3.2198 6.06588
thorax -7.76997 1.93779 10.1636
lowerneck -10.8028 -2.35168 -2.69815
upperneck 19.6279 -1.45949 -5.13662
head 7.83579 -1.29815 -1.378
rclavicle -7.13637e-014 -4.6118e-014
rhumerus -54.3629 -4.05397 -68.6417
rradius 123.711
rwrist 37.1295
rhand -16.8126 3.09239
rfingers 7.12502
rthumb 9.41615 -26.6773
lclavicle -7.13637e-014 -4.6118e-014
lhumerus -54.4452 12.6563 77.8366
lradius 50.7217
lwrist 11.4675
lhand -12.9445 49.2862
lfingers 7.12502
lthumb 13.1467 78.8517
rfemur -13.6929 10.7945 23.3475
rtibia 40.5141
rfoot -23.1377 1.74935
rtoes 4.08226
lfemur -8.54197 5.10588 -22.9831
ltibia 34.1079
lfoot -18.4686 6.52715
ltoes -0.0600677
368
root -0.814203 17.8115 5.6733 -2.13145 55.796 361.902
lowerback 18.4405 3.01318 -7.04418
upperback 2.42235 3.19518 5.74116
thorax -8.43827 1.94798 9.58409
lowerneck -10.4434 -2.71977 -2.84666
upperneck 19.7921 -2.08213 -4.50521
head 7.82383 -1.54556 -1.20293
rclavicle 6.57977e-014 6.36111e-015
rhumerus -54.4138 -3.43601 -68.8737
rradius 124.939
rwrist 36.738
rhand -17.1993 1.59372
rfingers 7.12502
rthumb 9.043 -28.1924
lclavicle 6.57977e-014 6.36111e-015
lhumerus -54.8606 12.1452 77.7162
lradius 49.9606
lwrist 11.133
lhand -12.703 49.2114
lfingers 7.12502
lthumb 13.3795 78.7618
rfemur -14.0226 10.7203 23.0292
rtibia 40.5199
rfoot -23.6616 3.35132
rtoes 6.09703
lfemur -8.7567 5.18587 -23.1328
ltibia 34.226
lfoot -18.5056 7.04057
ltoes 0.808687
369
root -0.801583 17.809 5.63991 -2.30221 54.8647 361.558
lowerback 18.9323 2.95861 -6.37291
upperback 1.95732 3.20183 5.45663
thorax -9.17456 1.96123 8.85504
lowerneck -9.90089 -3.09976 -3.19761
upperneck 19.886 -2.72129 -3.74352
head 7.76715 -1.80075 -0.947967
rclavicle -8.72665e-014 1.59028e-014
rhumerus -54.4539 -3.57065 -68.098
rradius 126.234
rwrist 37.0063
rhand -15.5637 2.63543
rfingers 7.12502
rthumb 10.6211 -27.0762
lclavicle -8.72665e-014 1.59028e-014
lhumerus -55.3993 11.27 77.7436
lradius 49.2913
lwrist 10.8433
lhand -12.2086 49.0253
lfingers 7.12502
lthumb 13.856 78.5437
rfemur -14.3562 9.22118 23.2407
rtibia 40.4913
rfoot -24.3526 0.910668
rtoes -11.1282
lfemur -8.91296 4.74267 -23.1847
ltibia 34.3883
lfoot -18.5516 8.13528
ltoes 0.13616
